<svg width="16" height="20" viewBox="0 0 16 20" fill="none" xmlns="http://www.w3.org/2000/svg">
<path d="M4 10V8H12V10H4ZM4 6V4H12V6H4ZM2 12H9.5C9.98333 12 10.4333 12.104 10.85 12.312C11.2667 12.5207 11.6167 12.8167 11.9 13.2L14 15.95V2H2V12ZM2 18H13.05L10.325 14.425C10.225 14.2917 10.1043 14.1877 9.963 14.113C9.821 14.0377 9.66667 14 9.5 14H2V18ZM14 20H2C1.45 20 0.979333 19.8043 0.588 19.413C0.196 19.021 0 18.55 0 18V2C0 1.45 0.196 0.979 0.588 0.587C0.979333 0.195667 1.45 0 2 0H14C14.55 0 15.021 0.195667 15.413 0.587C15.8043 0.979 16 1.45 16 2V18C16 18.55 15.8043 19.021 15.413 19.413C15.021 19.8043 14.55 20 14 20Z" fill="white"/>
</svg>
