<svg width="20" height="20" viewBox="0 0 20 20" fill="none" xmlns="http://www.w3.org/2000/svg">
<path d="M10 0C8.05679 0.00368884 6.15658 0.571902 4.53084 1.63543C2.9051 2.69896 1.62399 4.21189 0.843549 5.98996C0.0631123 7.76803 -0.182966 9.73448 0.135289 11.6498C0.453544 13.5651 1.3224 15.3466 2.63601 16.7773C3.57422 17.7934 4.7129 18.6044 5.9803 19.159C7.24771 19.7137 8.61635 20 10 20C11.3836 20 12.7523 19.7137 14.0197 19.159C15.2871 18.6044 16.4258 17.7934 17.364 16.7773C18.6776 15.3466 19.5465 13.5651 19.8647 11.6498C20.183 9.73448 19.9369 7.76803 19.1565 5.98996C18.376 4.21189 17.0949 2.69896 15.4692 1.63543C13.8434 0.571902 11.9432 0.00368884 10 0ZM10 18.0186C7.92452 18.0155 5.93119 17.2081 4.43944 15.7663C4.89234 14.6647 5.6628 13.7225 6.6529 13.0594C7.643 12.3963 8.80805 12.0422 10 12.0422C11.192 12.0422 12.357 12.3963 13.3471 13.0594C14.3372 13.7225 15.1077 14.6647 15.5606 15.7663C14.0688 17.2081 12.0755 18.0155 10 18.0186ZM7.99619 8.00828C7.99619 7.61231 8.11372 7.22523 8.3339 6.89599C8.55408 6.56675 8.86703 6.31014 9.23318 6.15861C9.59933 6.00707 10.0022 5.96743 10.3909 6.04468C10.7796 6.12193 11.1367 6.31261 11.4169 6.5926C11.6971 6.87259 11.888 7.22933 11.9653 7.61769C12.0426 8.00606 12.0029 8.4086 11.8513 8.77444C11.6996 9.14027 11.4428 9.45295 11.1133 9.67294C10.7837 9.89293 10.3963 10.0103 10 10.0103C9.46856 10.0103 8.95888 9.79941 8.5831 9.42395C8.20731 9.04849 7.99619 8.53926 7.99619 8.00828ZM16.9232 14.0145C16.028 12.4847 14.6502 11.2947 13.0057 10.631C13.5158 10.053 13.8482 9.34031 13.963 8.5783C14.0778 7.8163 13.97 7.03739 13.6527 6.33504C13.3354 5.6327 12.8219 5.03676 12.174 4.61874C11.5261 4.20071 10.7713 3.97836 10 3.97836C9.22875 3.97836 8.47387 4.20071 7.82596 4.61874C7.17805 5.03676 6.66464 5.6327 6.34731 6.33504C6.02999 7.03739 5.92224 7.8163 6.037 8.5783C6.15176 9.34031 6.48415 10.053 6.99429 10.631C5.34977 11.2947 3.97202 12.4847 3.07685 14.0145C2.36344 12.8003 1.9865 11.4183 1.98478 10.0103C1.98478 7.88642 2.82924 5.84948 4.33238 4.34764C5.83553 2.8458 7.87423 2.00207 10 2.00207C12.1258 2.00207 14.1645 2.8458 15.6676 4.34764C17.1708 5.84948 18.0152 7.88642 18.0152 10.0103C18.0135 11.4183 17.6366 12.8003 16.9232 14.0145Z" fill="white"/>
</svg>
